<svg xmlns="http://www.w3.org/2000/svg" width="178" height="153" viewBox="0 0 178 153" version="1.1"><path d="M 80.500 1.637 C 78.850 2.467, 75.554 5.980, 73.175 9.443 L 68.851 15.741 69.912 21.481 C 70.495 24.637, 71.939 28.784, 73.121 30.696 C 75.155 33.986, 75.169 34.159, 73.384 33.932 C 72.348 33.800, 70.707 34.037, 69.737 34.458 C 68.768 34.879, 67.418 34.779, 66.737 34.235 C 64.900 32.768, 54.740 31.827, 53 32.964 C 51.939 33.657, 52.671 33.800, 55.500 33.453 C 58.391 33.099, 58.945 33.214, 57.500 33.867 C 55.673 34.693, 55.760 34.836, 58.500 35.526 C 60.150 35.941, 62.697 36.883, 64.160 37.620 C 66.201 38.647, 67.552 38.704, 69.961 37.864 C 71.689 37.261, 73.276 36.943, 73.490 37.156 C 74.561 38.228, 70.446 43.983, 67.459 45.592 C 65.584 46.602, 63.849 47.951, 63.603 48.591 C 62.969 50.245, 69.641 48.635, 71.902 46.589 C 73.879 44.800, 75 44.557, 75 45.918 C 75 47.523, 68.660 50.721, 64.123 51.405 C 59.715 52.069, 55.531 54.197, 56.577 55.244 C 56.887 55.554, 58.347 55.179, 59.821 54.410 C 61.294 53.641, 63.895 53.010, 65.601 53.006 C 67.307 53.003, 70.818 51.875, 73.404 50.500 C 77.589 48.275, 81 47.320, 81 48.374 C 81 50.147, 72.145 57.567, 66.608 60.433 L 59.716 64 29.858 64 L 0 64 -0.002 74.250 L -0.005 84.500 8.498 84.177 L 17 83.853 17 86.927 C 17 89.948, 16.915 90, 12 90 C 7.333 90, 7 90.167, 7 92.500 C 7 94.750, 7.400 95, 11 95 C 14.778 95, 15 95.167, 15 98 C 15 100.833, 14.778 101, 11 101 L 7 101 7 106.500 L 7 112 3.500 112 L 0 112 -0 118.437 L -0 124.873 3.250 125.187 L 6.500 125.500 6.500 139.251 L 6.500 153.002 10.250 153.001 L 14 153 14 138.872 L 14 124.743 21.750 125.231 C 26.013 125.500, 30.749 126.310, 32.275 127.032 C 38.319 129.890, 40.982 139.836, 37.350 145.985 C 36.442 147.521, 34.080 149.718, 32.100 150.866 L 28.500 152.954 36.250 152.977 L 44 153 44 138.960 L 44 124.919 52.250 125.210 C 59.942 125.480, 60.522 125.652, 60.820 127.750 C 61.115 129.829, 60.755 130, 56.070 130 C 51.103 130, 51 130.061, 51 133 C 51 135.842, 51.215 136, 55.066 136 C 58.913 136, 59.116 136.149, 58.816 138.750 C 58.534 141.205, 58.098 141.500, 54.749 141.500 C 51.343 141.500, 50.999 141.747, 50.999 144.195 C 51 146.701, 51.334 146.912, 55.750 147.195 C 60.203 147.481, 60.498 147.672, 60.461 150.250 C 60.426 152.655, 60.802 153, 63.461 153.001 L 66.500 153.002 66.500 139.251 L 66.500 125.500 70.406 125.500 C 74.213 125.500, 74.442 125.708, 79.411 133.671 C 82.215 138.166, 84.732 142.067, 85.005 142.341 C 85.277 142.615, 85.500 138.938, 85.500 134.170 L 85.500 125.500 88.750 125.187 L 92 124.873 92 138.937 L 92 153 98.250 153.002 L 104.500 153.004 104.188 142.002 L 103.875 131 99.938 131 C 96.229 131, 96 130.825, 96 128 L 96 125 107.500 125 L 119 125 119 128 C 119 130.833, 118.778 131, 115 131 L 111 131 111 142 L 111 153 117 153 L 123 153 123 138.937 L 123 124.873 126.250 125.187 L 129.500 125.500 129.778 139.250 L 130.056 153 136.028 153 L 142 153 142 142 L 142 131 138 131 C 134.222 131, 134 130.833, 134 128 L 134 125 145.500 125 L 157 125 157 128 C 157 130.889, 156.833 131, 152.500 131 L 148 131 148 142 L 148 153 154.500 153 L 161 153 161 139.039 L 161 125.078 169.689 124.789 L 178.378 124.500 178.557 94 L 178.736 63.500 144.118 63.762 C 112.115 64.005, 109.122 63.881, 104.500 62.119 C 99.860 60.351, 99.477 59.946, 99.183 56.493 C 98.945 53.702, 99.438 52.163, 101.155 50.335 C 103.153 48.208, 104.186 47.935, 109.266 48.187 C 113.496 48.396, 115.332 48.082, 115.978 47.035 C 116.468 46.243, 116.646 45.237, 116.375 44.798 C 116.104 44.359, 116.217 43.458, 116.627 42.795 C 117.036 42.133, 117.519 40.243, 117.699 38.596 C 117.879 36.949, 118.566 35.268, 119.225 34.861 C 120.101 34.319, 119.723 32.762, 117.812 29.053 L 115.201 23.986 114.152 26.993 C 112.985 30.341, 111.548 30.870, 110.566 28.312 C 110.172 27.284, 110.529 26.284, 111.480 25.751 C 113.478 24.633, 112.468 22.883, 110.304 23.714 C 109.213 24.132, 108.912 23.952, 109.395 23.170 C 109.793 22.526, 111.441 22, 113.059 22 C 116.271 22, 116.661 20.870, 114.979 16.443 C 114.253 14.535, 114.288 13.358, 115.101 12.378 C 115.983 11.315, 115.914 11, 114.797 11 C 114 11, 112.347 9.934, 111.122 8.630 C 108.907 6.272, 108.906 6.258, 110.952 5.723 C 113.565 5.040, 112.761 2.668, 109.398 1.135 C 105.596 -0.597, 84.203 -0.226, 80.500 1.637 M 46.311 34.111 C 39.630 39.820, 39.452 40.001, 40.550 39.996 C 41.073 39.994, 43.975 37.746, 47 35 C 53.619 28.992, 53.094 28.315, 46.311 34.111 M 49.378 37.198 C 49.029 37.762, 49.364 38.616, 50.122 39.096 C 51.204 39.782, 51.218 39.973, 50.191 39.985 C 49.471 39.993, 49.127 40.397, 49.427 40.882 C 49.727 41.368, 49.001 43, 47.813 44.510 L 45.654 47.256 47.761 46.128 C 48.920 45.508, 51.586 44.980, 53.684 44.955 C 55.783 44.930, 58.850 44.316, 60.500 43.590 L 63.500 42.270 60.500 41.059 C 58.850 40.393, 55.815 39.021, 53.756 38.010 C 51.352 36.830, 49.785 36.540, 49.378 37.198 M 47.250 53.491 C 45.462 54.268, 44 55.367, 44 55.935 C 44 56.762, 50.245 53.967, 51.917 52.393 C 52.795 51.565, 50.364 52.138, 47.250 53.491 M 0.374 74.500 C 0.376 80.550, 0.541 82.896, 0.740 79.713 C 0.939 76.531, 0.937 71.581, 0.736 68.713 C 0.535 65.846, 0.372 68.450, 0.374 74.500 M 117.914 83.945 C 111.031 86.059, 106.997 91.496, 107.004 98.651 C 107.014 109.677, 120.043 116.836, 129.025 110.750 C 133.309 107.847, 133.619 106.669, 130.533 105.017 C 128.358 103.853, 127.772 103.896, 126.181 105.336 C 123.345 107.903, 119.246 107.400, 115.923 104.077 C 112.846 100.999, 112.380 98.760, 113.957 94.613 C 115.795 89.780, 123.058 88.313, 127.382 91.902 C 128.271 92.640, 129.272 92.498, 130.818 91.415 C 133.751 89.361, 133.578 88.514, 129.750 86.189 C 125.720 83.742, 121.303 82.905, 117.914 83.945 M 21.667 84.667 C 21.300 85.033, 21 91.333, 21 98.667 L 21 112 24 112 C 26.974 112, 27 111.953, 27 106.427 C 27 99.452, 28.492 99.470, 33.172 106.500 C 36.089 110.882, 36.977 111.539, 40.361 111.817 L 44.222 112.134 39.996 106.110 C 36.109 100.568, 35.900 99.957, 37.384 98.473 C 41.590 94.267, 40.174 87.806, 34.530 85.448 C 30.980 83.965, 22.862 83.472, 21.667 84.667 M 54.540 85.189 C 54.296 85.910, 52.050 91.950, 49.548 98.610 C 47.047 105.271, 45 111.008, 45 111.360 C 45 111.712, 46.373 112, 48.051 112 C 50.593 112, 51.346 111.416, 52.564 108.500 C 53.955 105.172, 54.269 105, 58.949 105 C 63.666 105, 63.923 105.146, 65.136 108.500 C 66.234 111.537, 66.838 112, 69.701 112 C 71.515 112, 72.977 111.662, 72.949 111.250 C 72.922 110.838, 70.559 104.650, 67.699 97.500 L 62.500 84.500 58.742 84.189 C 56.305 83.988, 54.828 84.339, 54.540 85.189 M 77 97.940 L 77 112 80 112 L 83 112 83.011 102.750 L 83.021 93.500 88.655 102.750 C 94.193 111.843, 94.354 112, 98.145 112 L 102 112 102 98 L 102 84 99 84 L 96 84 96 93.705 L 96 103.410 90.188 93.955 C 84.697 85.020, 84.174 84.483, 80.688 84.190 L 77 83.879 77 97.940 M 137.667 84.667 C 137.300 85.033, 137 91.333, 137 98.667 L 137 112 145.500 112 C 153.900 112, 154 111.971, 154 109.500 C 154 107.167, 153.667 107, 149 107 C 144.133 107, 144 106.922, 144 104.057 C 144 101.311, 144.283 101.095, 148.250 100.807 C 152.035 100.534, 152.500 100.226, 152.500 98 C 152.500 95.774, 152.035 95.466, 148.250 95.193 C 144.494 94.921, 144 94.601, 144 92.443 C 144 90.178, 144.365 90, 149 90 C 153.889 90, 154 89.933, 154 87 L 154 84 146.167 84 C 141.858 84, 138.033 84.300, 137.667 84.667 M 27 93 C 27 95.828, 27.268 96.102, 29.750 95.816 C 31.932 95.565, 32.500 94.984, 32.500 93 C 32.500 91.016, 31.932 90.435, 29.750 90.184 C 27.268 89.898, 27 90.172, 27 93 M 57.201 95.322 C 55.557 99.868, 55.605 100, 58.930 100 C 61.748 100, 61.825 99.878, 60.948 96.817 C 59.581 92.052, 58.534 91.634, 57.201 95.322 M 0.328 118.500 C 0.333 122.350, 0.513 123.802, 0.730 121.728 C 0.946 119.653, 0.943 116.503, 0.722 114.728 C 0.501 112.952, 0.324 114.650, 0.328 118.500 M 168.750 120.470 C 166.475 123.599, 166.539 124, 169.313 124 C 170.585 124, 172.919 122.650, 174.500 121 L 177.374 118 173.937 118.031 C 171.481 118.054, 170.001 118.750, 168.750 120.470 M 167 133 C 167 135.895, 167.159 136, 171.566 136 C 175.958 136, 176.121 136.105, 175.816 138.750 C 175.527 141.269, 175.143 141.500, 171.249 141.500 C 167.313 141.500, 166.998 141.697, 166.999 144.157 C 167 146.670, 167.299 146.834, 172.501 147.157 L 178.003 147.500 178.001 138.750 L 178 130 172.500 130 C 167.056 130, 167 130.030, 167 133 M 20 139 L 20 147 24.045 147 C 27.007 147, 28.748 146.343, 30.545 144.545 C 35.902 139.189, 31.972 131, 24.045 131 L 20 131 20 139 M 73 143.796 L 73 153 78.535 153 C 84.884 153, 84.969 153.999, 77.597 142.046 L 73 134.592 73 143.796" stroke="none" fill="#ffffff" fill-rule="evenodd"/><path d="M 0.447 32 C 0.447 49.875, 0.582 57.188, 0.748 48.250 C 0.914 39.312, 0.914 24.687, 0.748 15.750 C 0.582 6.813, 0.447 14.125, 0.447 32 M 79.441 1.555 C 77.611 3.022, 77.643 3.042, 80 1.920 C 83.061 0.462, 83.628 -0, 82.358 -0 C 81.821 -0, 80.509 0.700, 79.441 1.555 M 177.447 32 C 177.447 49.875, 177.582 57.188, 177.748 48.250 C 177.914 39.312, 177.914 24.687, 177.748 15.750 C 177.582 6.813, 177.447 14.125, 177.447 32 M 110.500 6 C 108.870 6.701, 108.812 6.872, 110.191 6.930 C 111.121 6.968, 112.160 6.550, 112.500 6 C 113.211 4.850, 113.176 4.850, 110.500 6 M 72.807 8.750 C 71.045 10.802, 69.724 13, 70.253 13 C 70.457 13, 71.622 11.650, 72.842 10 C 75.252 6.740, 75.230 5.929, 72.807 8.750 M 112.174 9.603 C 113.070 10.499, 114.283 11.067, 114.869 10.866 C 115.455 10.665, 114.722 9.931, 113.240 9.237 C 110.749 8.069, 110.668 8.097, 112.174 9.603 M 116 21 C 116 21.550, 114.677 22, 113.059 22 C 111.441 22, 109.793 22.526, 109.395 23.170 C 108.912 23.952, 109.213 24.132, 110.304 23.714 C 112.468 22.883, 113.478 24.633, 111.480 25.751 C 110.529 26.284, 110.172 27.284, 110.566 28.312 C 111.565 30.914, 112.991 30.324, 114.219 26.801 C 115.202 23.982, 115.425 23.834, 116.097 25.551 C 116.667 27.008, 116.877 26.553, 116.930 23.750 C 116.968 21.688, 116.775 20, 116.500 20 C 116.225 20, 116 20.450, 116 21 M 70.063 26.139 C 70.029 27.041, 70.787 28.637, 71.750 29.686 C 72.713 30.736, 73.181 31.099, 72.790 30.493 C 72.400 29.888, 71.641 28.292, 71.104 26.946 C 70.486 25.400, 70.103 25.103, 70.063 26.139 M 52 30 C 52 30.550, 52.450 31, 53 31 C 53.550 31, 54 30.550, 54 30 C 54 29.450, 53.550 29, 53 29 C 52.450 29, 52 29.450, 52 30 M 45.605 33.890 C 43.679 35.901, 43.196 37.003, 44.019 37.512 C 44.691 37.927, 46.025 37.328, 47.106 36.127 C 48.154 34.963, 48.469 34.459, 47.806 35.006 C 45.643 36.790, 44.644 36.051, 46.479 34.024 C 47.462 32.937, 48.727 32.331, 49.288 32.678 C 49.873 33.040, 50.004 32.816, 49.595 32.155 C 48.654 30.630, 48.782 30.575, 45.605 33.890 M 70 32.617 C 70 33.777, 69.395 34.075, 67.856 33.673 C 66.325 33.272, 66.020 33.420, 66.789 34.189 C 68.196 35.596, 71 34.492, 71 32.531 C 71 31.689, 70.775 31, 70.500 31 C 70.225 31, 70 31.727, 70 32.617 M 119.731 33.080 C 120.085 34.432, 120.538 34.886, 120.788 34.137 C 121.028 33.415, 120.750 32.350, 120.168 31.768 C 119.426 31.026, 119.296 31.417, 119.731 33.080 M 53.666 33.250 C 53.914 33.663, 53.443 34, 52.618 34 C 49.067 34, 50.548 35.548, 54.190 35.644 C 56.504 35.704, 57.674 35.416, 56.944 34.965 C 56.136 34.466, 57.277 33.827, 60.088 33.204 L 64.500 32.227 58.857 32.363 C 55.753 32.438, 53.417 32.837, 53.666 33.250 M 63 37.430 C 63 37.705, 63.900 38.411, 65 39 C 66.100 39.589, 67 39.845, 67 39.570 C 67 39.295, 66.100 38.589, 65 38 C 63.900 37.411, 63 37.155, 63 37.430 M 69.500 38 C 68.239 38.542, 68.055 38.859, 69 38.859 C 69.825 38.859, 71.400 38.473, 72.500 38 C 73.761 37.458, 73.945 37.141, 73 37.141 C 72.175 37.141, 70.600 37.527, 69.500 38 M 55 39 C 55.825 39.533, 57.175 39.945, 58 39.914 C 58.989 39.878, 58.819 39.567, 57.500 39 C 54.751 37.819, 53.172 37.819, 55 39 M 68.500 43.442 C 64.822 47.066, 64.748 47.238, 67.582 45.575 C 70.268 43.999, 73.728 40.087, 72.819 39.653 C 72.644 39.569, 70.700 41.274, 68.500 43.442 M 37.890 42.250 C 36.715 44.488, 36.720 44.490, 38.854 42.595 C 41.238 40.479, 41.456 40, 40.035 40 C 39.505 40, 38.539 41.013, 37.890 42.250 M 61.558 41.419 C 63.422 42.782, 63.388 42.864, 60.702 43.539 C 59.165 43.924, 58.138 44.472, 58.421 44.755 C 58.704 45.038, 60.308 44.701, 61.984 44.007 C 64.798 42.841, 64.897 42.641, 63.266 41.404 C 62.295 40.667, 61.076 40.049, 60.559 40.032 C 60.041 40.014, 60.491 40.638, 61.558 41.419 M 46.004 45.496 C 44.714 46.869, 43.950 48.283, 44.306 48.639 C 44.662 48.995, 45.236 48.549, 45.581 47.649 C 45.927 46.748, 46.609 46.258, 47.097 46.560 C 47.585 46.861, 48.775 46.612, 49.742 46.006 C 51.209 45.087, 51.088 45.019, 49.008 45.596 C 46.781 46.215, 46.661 46.114, 47.880 44.644 C 50.006 42.083, 48.619 42.712, 46.004 45.496 M 71.717 46.994 C 70.949 48.090, 69.951 48.653, 69.500 48.244 C 69.049 47.835, 69.045 48.131, 69.492 48.901 C 70.181 50.089, 70.473 50.074, 71.403 48.802 C 72.006 47.977, 72.939 47.267, 73.475 47.226 C 74.798 47.123, 75.432 45, 74.140 45 C 73.575 45, 72.485 45.897, 71.717 46.994 M 115.211 47.601 C 114.501 48.370, 114.362 49, 114.902 49 C 115.940 49, 117.443 47.098, 116.850 46.534 C 116.658 46.351, 115.920 46.831, 115.211 47.601 M 62.729 47.604 C 61.671 48.662, 61.834 50.221, 62.931 49.543 C 63.443 49.226, 64.144 49.425, 64.490 49.984 C 64.835 50.543, 66.018 51, 67.118 51 C 68.218 51, 68.840 50.550, 68.500 50 C 68.160 49.450, 67.046 49, 66.024 49 C 65.003 49, 64.007 48.522, 63.813 47.938 C 63.618 47.353, 63.130 47.203, 62.729 47.604 M 75.441 49.555 C 73.611 51.022, 73.643 51.042, 76 49.920 C 79.061 48.462, 79.628 48, 78.358 48 C 77.821 48, 76.509 48.700, 75.441 49.555 M 45.441 53.555 C 43.566 55.057, 43.574 55.074, 45.684 54.055 C 48.558 52.667, 50.295 52.713, 49.405 54.155 C 48.959 54.876, 49.131 55.037, 49.862 54.585 C 51.245 53.731, 50.422 52, 48.632 52 C 47.945 52, 46.509 52.700, 45.441 53.555 M 63.250 53.689 C 64.213 53.941, 65.787 53.941, 66.750 53.689 C 67.713 53.438, 66.925 53.232, 65 53.232 C 63.075 53.232, 62.288 53.438, 63.250 53.689 M 74.405 55.250 L 72.500 57.500 74.750 55.595 C 75.987 54.547, 77 53.535, 77 53.345 C 77 52.545, 76.195 53.136, 74.405 55.250 M 58.527 54.956 C 58.202 55.482, 57.333 55.681, 56.597 55.399 C 55.861 55.116, 54.964 55.650, 54.606 56.586 C 53.615 59.167, 54.292 59.146, 57.539 56.492 C 59.168 55.161, 60.189 54.056, 59.809 54.036 C 59.429 54.016, 58.852 54.430, 58.527 54.956 M 44.559 56.532 C 43.491 57.339, 43.041 57.986, 43.559 57.968 C 44.076 57.951, 45.374 57.276, 46.441 56.468 C 47.509 55.661, 47.959 55.014, 47.441 55.032 C 46.924 55.049, 45.626 55.724, 44.559 56.532 M 66 60 C 65.175 60.533, 64.950 60.969, 65.500 60.969 C 66.050 60.969, 67.175 60.533, 68 60 C 68.825 59.467, 69.050 59.031, 68.500 59.031 C 67.950 59.031, 66.825 59.467, 66 60 M 0.667 84.667 C 0.300 85.033, -0 91.333, -0 98.667 L 0 112 3.500 112 L 7 112 7 106.557 L 7 101.115 11.250 100.732 L 15.500 100.349 10.750 100.175 L 6 100 6 105.500 C 6 110.700, 5.864 111, 3.500 111 L 1 111 1 98 L 1 85 8.500 85 C 15.333 85, 16 85.178, 16 87 C 16 88.733, 15.333 89, 11 89 L 6 89 6 92.500 L 6 96 10.750 95.825 L 15.500 95.651 11.250 95.268 C 7.514 94.931, 7 94.589, 7 92.443 C 7 90.178, 7.365 90, 12 90 C 16.889 90, 17 89.933, 17 87 L 17 84 9.167 84 C 4.858 84, 1.033 84.300, 0.667 84.667 M 21.667 84.667 C 21.300 85.033, 21 91.333, 21 98.667 L 21 112 24.250 111.850 C 27.275 111.711, 27.310 111.671, 24.750 111.284 L 22 110.867 22 97.986 L 22 85.105 27.250 84.737 L 32.500 84.370 27.417 84.185 C 24.621 84.083, 22.033 84.300, 21.667 84.667 M 54.667 84.667 C 54.300 85.033, 54.007 85.821, 54.015 86.417 C 54.025 87.121, 54.291 87.091, 54.774 86.331 C 55.183 85.689, 57.089 84.973, 59.009 84.741 L 62.500 84.320 58.917 84.160 C 56.946 84.072, 55.033 84.300, 54.667 84.667 M 79.996 84.742 C 81.919 84.974, 84.169 85.689, 84.996 86.332 C 86.306 87.349, 86.323 87.274, 85.128 85.750 C 84.216 84.587, 82.538 84.054, 80.128 84.160 L 76.500 84.320 79.996 84.742 M 98.250 84.716 L 101 85.133 101 98.066 L 101 111 97.860 111 C 96.076 111, 94.109 110.245, 93.305 109.250 C 92.028 107.671, 91.996 107.719, 92.980 109.750 C 93.839 111.522, 94.913 112, 98.035 112 L 102 112 102 98 L 102 84 98.750 84.150 C 95.725 84.289, 95.690 84.329, 98.250 84.716 M 137.667 84.667 C 137.300 85.033, 137 91.333, 137 98.667 L 137 112 145.500 112 L 154 112 153.864 109.250 C 153.747 106.892, 153.666 106.821, 153.294 108.750 C 152.891 110.843, 152.341 111, 145.430 111 L 138 111 138 98 L 138 85 145.500 85 C 152.333 85, 153 85.178, 153 87 C 153 88.733, 152.333 89, 148 89 L 143 89 143 92.500 C 143 95.981, 143.024 96, 147.500 96 C 151.333 96, 152 96.296, 152 98 C 152 99.704, 151.333 100, 147.500 100 L 143 100 143.160 103.750 C 143.314 107.364, 143.335 107.384, 143.719 104.305 C 144.089 101.343, 144.425 101.087, 148.309 100.805 C 152.031 100.534, 152.500 100.221, 152.500 98 C 152.500 95.774, 152.035 95.466, 148.250 95.193 C 144.494 94.921, 144 94.601, 144 92.443 C 144 90.178, 144.365 90, 149 90 C 153.889 90, 154 89.933, 154 87 L 154 84 146.167 84 C 141.858 84, 138.033 84.300, 137.667 84.667 M 131.439 87.794 C 131.842 88.505, 131.596 89.855, 130.891 90.794 C 129.737 92.330, 129.799 92.326, 131.512 90.757 C 133.101 89.301, 133.191 88.807, 132.060 87.757 C 130.970 86.745, 130.849 86.752, 131.439 87.794 M 29.500 89.892 C 31.927 90.422, 32.494 91.053, 32.466 93.199 C 32.448 94.657, 32.785 95.633, 33.216 95.366 C 34.403 94.633, 34.155 91.555, 32.800 90.200 C 32.140 89.540, 30.452 89.053, 29.050 89.118 C 26.677 89.228, 26.708 89.282, 29.500 89.892 M 39.195 92.500 C 39.215 94.150, 39.439 94.704, 39.693 93.731 C 39.947 92.758, 39.930 91.408, 39.656 90.731 C 39.382 90.054, 39.175 90.850, 39.195 92.500 M 114.872 91.750 C 113.603 93.369, 113.650 93.390, 115.500 92.033 C 116.600 91.226, 117.688 90.439, 117.917 90.283 C 118.146 90.127, 117.863 90, 117.289 90 C 116.715 90, 115.627 90.787, 114.872 91.750 M 125.083 90.283 C 125.313 90.439, 126.400 91.226, 127.500 92.033 C 129.350 93.390, 129.397 93.369, 128.128 91.750 C 127.373 90.787, 126.285 90, 125.711 90 C 125.137 90, 124.854 90.127, 125.083 90.283 M 56.624 94.539 C 55.659 97.053, 55.943 97.702, 57.122 95.675 C 57.706 94.671, 57.973 93.639, 57.715 93.382 C 57.458 93.124, 56.966 93.645, 56.624 94.539 M 82 101.934 L 82 110.867 79.250 111.284 C 76.636 111.680, 76.658 111.708, 79.681 111.850 L 82.863 112 83.181 102.498 C 83.357 97.272, 83.162 92.997, 82.750 92.998 C 82.338 92.999, 82 97.020, 82 101.934 M 107.286 98.500 C 107.294 101.250, 107.488 102.256, 107.718 100.736 C 107.947 99.216, 107.941 96.966, 107.704 95.736 C 107.467 94.506, 107.279 95.750, 107.286 98.500 M 27.750 96.662 C 28.438 96.940, 29.563 96.940, 30.250 96.662 C 30.938 96.385, 30.375 96.158, 29 96.158 C 27.625 96.158, 27.063 96.385, 27.750 96.662 M 68.031 100.500 C 68.031 101.050, 68.467 102.175, 69 103 C 69.533 103.825, 69.969 104.050, 69.969 103.500 C 69.969 102.950, 69.533 101.825, 69 101 C 68.467 100.175, 68.031 99.950, 68.031 100.500 M 113 101.889 C 113 102.838, 117.886 107.497, 118.277 106.921 C 118.434 106.689, 117.311 105.291, 115.781 103.814 C 114.251 102.336, 113 101.470, 113 101.889 M 32 105 C 32.589 106.100, 33.295 107, 33.570 107 C 33.845 107, 33.589 106.100, 33 105 C 32.411 103.900, 31.705 103, 31.430 103 C 31.155 103, 31.411 103.900, 32 105 M 39 106 C 40.175 107.650, 41.361 109, 41.636 109 C 41.911 109, 41.175 107.650, 40 106 C 38.825 104.350, 37.639 103, 37.364 103 C 37.089 103, 37.825 104.350, 39 106 M 53.683 104.701 C 53.411 105.140, 55.452 105.340, 58.220 105.145 C 61.656 104.903, 63.553 105.220, 64.202 106.145 C 64.970 107.240, 65.075 107.213, 64.748 106 C 64.308 104.372, 54.594 103.231, 53.683 104.701 M 70.031 105.500 C 70.031 106.050, 70.467 107.175, 71 108 C 71.533 108.825, 71.969 109.050, 71.969 108.500 C 71.969 107.950, 71.533 106.825, 71 106 C 70.467 105.175, 70.031 104.950, 70.031 105.500 M 111 108.500 C 112.292 109.875, 113.574 111, 113.849 111 C 114.124 111, 113.292 109.875, 112 108.500 C 110.708 107.125, 109.426 106, 109.151 106 C 108.876 106, 109.708 107.125, 111 108.500 M 130.606 108.848 L 128.712 111.500 131.050 109.278 C 132.337 108.056, 133.189 106.862, 132.944 106.626 C 132.700 106.389, 131.648 107.389, 130.606 108.848 M 51.524 108.925 C 50.790 111.237, 46.506 111.840, 45.662 109.750 C 45.361 109.003, 45.126 109.205, 45.079 110.250 C 44.959 112.899, 50.594 112.627, 52.046 109.914 C 52.660 108.767, 52.942 107.608, 52.672 107.339 C 52.403 107.070, 51.886 107.783, 51.524 108.925 M 39.500 111 C 36.536 111.754, 36.546 111.765, 40.309 111.882 C 42.619 111.953, 43.875 111.607, 43.500 111 C 43.160 110.450, 42.796 110.053, 42.691 110.118 C 42.586 110.183, 41.150 110.580, 39.500 111 M 66 111.250 C 66 111.662, 67.575 112, 69.500 112 C 71.425 112, 73 111.662, 73 111.250 C 73 110.838, 71.425 110.500, 69.500 110.500 C 67.575 110.500, 66 110.838, 66 111.250 M 116.345 112.235 C 116.980 112.639, 119.300 112.969, 121.500 112.969 C 123.700 112.969, 126.020 112.639, 126.655 112.235 C 127.289 111.831, 124.970 111.500, 121.500 111.500 C 118.030 111.500, 115.711 111.831, 116.345 112.235 M 174 120.500 C 171.653 122.998, 167.198 124.107, 168.595 121.845 C 169.038 121.130, 168.870 120.962, 168.155 121.405 C 166.230 122.594, 166.858 124, 169.313 124 C 170.585 124, 172.919 122.650, 174.500 121 C 176.081 119.350, 177.143 118, 176.861 118 C 176.579 118, 175.292 119.125, 174 120.500 M -0 139 L 0 153.127 3.250 152.813 L 6.500 152.500 6.500 139 L 6.500 125.500 3.250 125.187 L -0 124.873 -0 139 M 16.728 125.722 C 18.503 125.943, 21.653 125.946, 23.728 125.730 C 25.802 125.513, 24.350 125.333, 20.500 125.328 C 16.650 125.324, 14.952 125.501, 16.728 125.722 M 44 139 L 44 153.081 52.250 152.790 C 60.306 152.507, 60.500 152.441, 60.500 150 C 60.500 147.732, 60.065 147.472, 55.809 147.198 C 51.361 146.911, 51.098 146.730, 50.719 143.698 C 50.334 140.614, 50.314 140.633, 50.160 144.250 L 50 148 55 148 C 59.333 148, 60 148.267, 60 150 C 60 151.822, 59.333 152, 52.500 152 L 45 152 45 139 L 45 126 52.430 126 C 58.681 126, 59.927 126.278, 60.279 127.750 C 60.597 129.082, 60.673 129.022, 60.598 127.500 C 60.510 125.695, 59.698 125.472, 52.250 125.210 L 44 124.919 44 139 M 66.460 126.245 C 66.171 126.996, 66.062 133.211, 66.218 140.055 L 66.500 152.500 69.680 152.808 L 72.860 153.116 73.180 143.556 C 73.356 138.298, 73.162 133.997, 72.750 133.998 C 72.338 133.999, 72 138.050, 72 143 C 72 151.933, 71.981 152, 69.500 152 L 67 152 67 139 L 67 126 70.378 126 C 72.710 126, 74.283 126.697, 75.458 128.250 C 77.154 130.493, 77.155 130.492, 75.716 128 C 74.043 125.103, 67.382 123.840, 66.460 126.245 M 85.628 125.793 C 84.817 127.105, 84.646 142.980, 85.435 143.768 C 85.837 144.171, 86.076 144.050, 85.965 143.500 C 85.854 142.950, 85.816 138.787, 85.882 134.250 C 85.998 126.148, 86.045 126, 88.500 126 L 91 126 91 139 L 91 152 87.860 152 C 86.076 152, 84.109 151.245, 83.305 150.250 C 82.028 148.671, 81.996 148.719, 82.980 150.750 C 83.839 152.522, 84.913 153, 88.035 153 L 92 153 92 139 L 92 125 89.059 125 C 87.441 125, 85.898 125.357, 85.628 125.793 M 96 128 C 96 130.829, 96.226 131, 99.966 131 L 103.932 131 104.216 141.750 L 104.500 152.500 107.750 152.813 L 111 153.127 111 142.063 L 111 131 115 131 C 118.778 131, 119 130.833, 119 128 L 119 125 107.500 125 L 96 125 96 128 M 123 138.937 L 123 153 126.528 153 L 130.056 153 129.778 139.250 L 129.500 125.500 126.250 125.187 L 123 124.873 123 138.937 M 144.750 125.747 C 155.045 126.038, 156 126.228, 156 127.975 C 156 129.495, 155.133 129.963, 151.750 130.268 L 147.500 130.651 152.250 130.825 C 156.900 130.996, 157 130.937, 157 128 L 157 125 145.250 125.214 L 133.500 125.428 144.750 125.747 M 161 139 L 161 153 169.566 153 L 178.133 153 177.816 150.250 C 177.516 147.635, 177.229 147.495, 172 147.405 L 166.500 147.309 171.750 147.707 C 176.150 148.040, 177 148.420, 177 150.052 C 177 151.809, 176.266 152, 169.500 152 L 162 152 162 139 L 162 126 169.430 126 C 176.341 126, 176.891 126.157, 177.294 128.250 C 177.666 130.179, 177.747 130.108, 177.864 127.750 L 178 125 169.500 125 L 161 125 161 139 M 1 139 L 1 152 3.500 152 L 6 152 6 139 L 6 126 3.500 126 L 1 126 1 139 M 97 128 C 97 129.667, 97.667 130, 101 130 L 105 130 105 141 L 105 152 107.466 152 C 109.917 152, 109.934 151.934, 110.216 141.250 L 110.500 130.500 114.250 130.190 C 117.188 129.946, 118 129.459, 118 127.940 C 118 126.143, 117.224 126, 107.500 126 C 97.667 126, 97 126.127, 97 128 M 124 139 L 124 152 126.500 152 L 129 152 129 139 L 129 126 126.500 126 L 124 126 124 139 M 32 127.430 C 32 127.705, 32.900 128.411, 34 129 C 35.100 129.589, 36 129.845, 36 129.570 C 36 129.295, 35.100 128.589, 34 128 C 32.900 127.411, 32 127.155, 32 127.430 M 19.422 131.344 C 19.138 132.083, 19.040 136.020, 19.203 140.094 L 19.500 147.500 23.259 147.605 L 27.017 147.710 23.509 147.294 L 20 146.879 20 139 L 20 131.121 23.750 130.728 L 27.500 130.336 23.719 130.168 C 21.347 130.063, 19.745 130.501, 19.422 131.344 M 50.160 133.250 C 50.001 136.985, 50.016 137, 54 137 C 57.290 137, 58 137.344, 58 138.937 C 58 140.284, 57.163 140.997, 55.250 141.280 C 52.655 141.663, 52.670 141.681, 55.500 141.593 C 58.001 141.515, 58.553 141.043, 58.816 138.750 C 59.115 136.155, 58.907 136, 55.130 136 C 51.363 136, 51.103 135.808, 50.723 132.750 C 50.326 129.550, 50.318 129.558, 50.160 133.250 M 137.993 130.709 L 142 131.115 142 142.057 L 142 153 145.250 152.850 C 148.226 152.713, 148.271 152.666, 145.783 152.287 L 143.066 151.874 142.783 141.187 L 142.500 130.500 138.243 130.402 L 133.985 130.304 137.993 130.709 M 80 136 C 80.589 137.100, 81.295 138, 81.570 138 C 81.845 138, 81.589 137.100, 81 136 C 80.411 134.900, 79.705 134, 79.430 134 C 79.155 134, 79.411 134.900, 80 136 M 170.750 136.732 C 174.109 137.035, 175 137.510, 175 138.997 C 175 140.403, 174.113 140.984, 171.491 141.294 L 167.983 141.710 171.741 141.605 C 175.067 141.512, 175.536 141.184, 175.816 138.750 C 176.125 136.067, 176.016 136.004, 171.316 136.175 L 166.500 136.349 170.750 136.732 M 78 143 C 78.589 144.100, 79.295 145, 79.570 145 C 79.845 145, 79.589 144.100, 79 143 C 78.411 141.900, 77.705 141, 77.430 141 C 77.155 141, 77.411 141.900, 78 143 M 17.776 152.733 C 20.128 152.945, 23.728 152.942, 25.776 152.727 C 27.824 152.512, 25.900 152.339, 21.500 152.343 C 17.100 152.346, 15.424 152.522, 17.776 152.733" stroke="none" fill="#cdcdcd" fill-rule="evenodd"/><path d="M 110.777 1.557 C 113.400 3.394, 113.644 5.540, 111.374 6.811 C 110.002 7.578, 110.204 7.923, 112.667 9.013 C 115.081 10.081, 115.602 10.929, 115.673 13.903 C 115.838 20.729, 117.283 27.508, 119.139 30.154 C 121.414 33.400, 121.478 34.603, 119.417 35.394 C 118.546 35.728, 118.012 36.537, 118.231 37.192 C 118.449 37.847, 118.109 40.659, 117.475 43.441 L 116.323 48.500 110.411 48.562 C 102.225 48.649, 102.235 48.645, 100.526 51.950 C 97.788 57.244, 98.447 58.781, 104.624 61.513 L 110.249 64 143.624 64 L 177 64 177 32 L 177 0 142.777 0 C 111.518 0, 108.747 0.135, 110.777 1.557" stroke="none" fill="#e1000f" fill-rule="evenodd"/><path d="M 1 32 L 1 64 29.389 64 L 57.779 64 65.639 60.057 C 70.811 57.463, 74.638 54.719, 76.826 52.034 L 80.152 47.953 74.203 50.976 C 70.898 52.656, 66.675 54, 64.703 54 C 62.376 54, 60.130 54.861, 58.182 56.500 C 54.004 60.016, 52.709 59.607, 55.115 55.530 C 56.626 52.970, 58.084 51.887, 60.680 51.400 C 63.108 50.945, 63.782 50.484, 62.857 49.912 C 61.369 48.992, 61.370 48.991, 67.750 44.094 C 72.809 40.211, 73.546 37.565, 69.140 39.101 C 66.866 39.894, 65.586 39.703, 62.890 38.167 C 59.197 36.064, 52.317 34.678, 51.570 35.887 C 51.313 36.302, 53.442 37.469, 56.302 38.480 C 59.161 39.491, 62.301 40.862, 63.281 41.525 C 64.917 42.634, 64.836 42.823, 62.281 43.855 C 60.751 44.473, 57.358 45.178, 54.741 45.421 C 52.123 45.664, 48.636 46.534, 46.991 47.355 C 43.195 49.249, 42.729 47.063, 46.415 44.648 C 48.027 43.591, 48.663 42.428, 48.329 41.149 C 47.578 38.278, 50.517 33.443, 53.854 32.061 C 56.246 31.070, 57.904 31.126, 62.651 32.359 C 67.846 33.708, 68.629 33.710, 69.654 32.379 C 70.408 31.399, 71.035 31.247, 71.463 31.940 C 71.823 32.523, 72.611 33, 73.214 33 C 73.817 33, 73.536 32.144, 72.589 31.099 C 71.643 30.053, 70.210 26.373, 69.405 22.921 C 68.115 17.392, 68.117 16.273, 69.424 13.520 C 70.239 11.801, 71.828 9.561, 72.953 8.542 C 74.079 7.524, 75 6.278, 75 5.774 C 75 4.632, 76.878 2.730, 79.500 1.216 C 81.037 0.328, 72.181 0.054, 41.250 0.030 L 1 0 1 32 M 48.422 31.250 C 42.861 35.467, 39.811 38.497, 38.405 41.200 C 36.262 45.320, 36.681 45.386, 40.533 41.533 C 42.477 39.590, 44.630 38, 45.318 38 C 46.006 38, 47.350 36.677, 48.305 35.061 C 49.260 33.444, 50.932 31.839, 52.021 31.493 C 53.109 31.148, 54 30.446, 54 29.933 C 54 28.323, 51.505 28.912, 48.422 31.250 M 54.500 47 C 54.160 47.550, 54.557 48, 55.382 48 C 56.207 48, 57.160 47.550, 57.500 47 C 57.840 46.450, 57.443 46, 56.618 46 C 55.793 46, 54.840 46.450, 54.500 47 M 45.314 53.250 C 43.718 55.733, 42.127 59, 42.515 59 C 42.733 59, 44.450 57.987, 46.331 56.750 C 48.213 55.513, 50.595 53.964, 51.626 53.309 C 53.275 52.261, 53.056 52.111, 49.809 52.059 C 47.779 52.026, 45.756 52.563, 45.314 53.250 M 50 56 C 50 56.550, 50.450 57, 51 57 C 51.550 57, 52 56.550, 52 56 C 52 55.450, 51.550 55, 51 55 C 50.450 55, 50 55.450, 50 56" stroke="none" fill="#000091" fill-rule="evenodd"/><path d="M 55.750 31.662 C 56.438 31.940, 57.563 31.940, 58.250 31.662 C 58.938 31.385, 58.375 31.158, 57 31.158 C 55.625 31.158, 55.063 31.385, 55.750 31.662 M 76.924 51.750 L 74.500 54.500 77.250 52.076 C 79.820 49.810, 80.459 49, 79.674 49 C 79.495 49, 78.258 50.237, 76.924 51.750 M 117.208 84.669 C 115.948 84.934, 113.360 86.706, 111.458 88.608 C 108.285 91.782, 108 92.559, 108 98.048 C 108 103.464, 108.323 104.382, 111.423 107.765 C 114.709 111.350, 115.110 111.500, 121.395 111.500 C 126.911 111.500, 128.304 111.136, 130.222 109.192 C 132.455 106.930, 132.462 106.856, 130.570 105.450 C 128.874 104.190, 128.413 104.222, 126.770 105.708 C 124.019 108.198, 118.551 107.866, 115.527 105.026 C 112.552 102.231, 112.049 95.802, 114.529 92.262 C 116.634 89.256, 122.055 88.382, 126.094 90.397 C 128.498 91.596, 129.638 91.716, 130.650 90.876 C 132.558 89.292, 132.345 88.456, 129.570 86.638 C 126.902 84.890, 120.794 83.917, 117.208 84.669 M 1 98 L 1 111 3.500 111 C 5.864 111, 6 110.700, 6 105.500 L 6 100 10.500 100 C 14.333 100, 15 99.704, 15 98 C 15 96.296, 14.333 96, 10.500 96 C 6.024 96, 6 95.981, 6 92.500 L 6 89 11 89 C 15.333 89, 16 88.733, 16 87 C 16 85.178, 15.333 85, 8.500 85 L 1 85 1 98 M 22 98 L 22 111 24.500 111 C 26.838 111, 27 110.672, 27 105.927 C 27 101.635, 27.270 100.904, 28.750 101.185 C 29.712 101.368, 31.850 103.642, 33.500 106.240 C 35.878 109.983, 37.071 110.967, 39.250 110.982 C 40.763 110.992, 42 110.776, 42 110.502 C 42 110.229, 40.400 107.778, 38.445 105.057 L 34.891 100.109 36.945 98.055 C 38.219 96.781, 39 94.697, 39 92.573 C 39 87.470, 35.368 85, 27.865 85 L 22 85 22 98 M 50.674 97.302 C 48.103 104.068, 46 109.918, 46 110.302 C 46 110.686, 47.042 111, 48.315 111 C 49.976 111, 51.101 110.011, 52.299 107.500 C 53.878 104.189, 54.238 104, 58.970 104 C 63.743 104, 64.041 104.161, 65.436 107.500 C 66.582 110.244, 67.467 111, 69.532 111 C 70.981 111, 72.017 110.655, 71.833 110.234 C 71.650 109.813, 69.475 103.964, 67 97.236 L 62.500 85.004 58.924 85.002 L 55.348 85 50.674 97.302 M 77 97.940 L 77 111 79.500 111 C 81.981 111, 82 110.933, 82 102 C 82 97.050, 82.338 93.014, 82.750 93.032 C 83.162 93.049, 85.965 97.099, 88.978 102.032 C 94.077 110.379, 94.683 111, 97.728 111 L 101 111 101 98 L 101 85 98.500 85 C 96.005 85, 96 85.020, 96 94.705 L 96 104.410 90.188 94.955 C 84.697 86.020, 84.174 85.483, 80.688 85.190 L 77 84.879 77 97.940 M 138 98 L 138 111 145.500 111 C 152.333 111, 153 110.822, 153 109 C 153 107.267, 152.333 107, 148 107 L 143 107 143 103.500 C 143 100.019, 143.024 100, 147.500 100 C 151.333 100, 152 99.704, 152 98 C 152 96.296, 151.333 96, 147.500 96 C 143.024 96, 143 95.981, 143 92.500 L 143 89 148 89 C 152.333 89, 153 88.733, 153 87 C 153 85.178, 152.333 85, 145.500 85 L 138 85 138 98 M 27 93 C 27 97.271, 28.254 98.005, 32.066 95.965 C 35.771 93.982, 33.792 89, 29.300 89 C 27.283 89, 27 89.493, 27 93 M 57.215 93.750 C 54.821 100.156, 54.779 100, 58.907 100 L 62.752 100 61.134 95.500 C 60.244 93.025, 59.229 91, 58.879 91 C 58.529 91, 57.780 92.237, 57.215 93.750 M 169.529 120.250 C 168.076 122.314, 168.082 122.529, 169.602 122.848 C 170.513 123.040, 172.427 122.027, 173.856 120.598 L 176.455 118 173.784 118 C 172.151 118, 170.498 118.874, 169.529 120.250 M 1 139 L 1 152 3.500 152 L 6 152 6 139 L 6 126 3.500 126 L 1 126 1 139 M 14 139 L 14 152 21.750 151.996 C 30.915 151.992, 35.302 149.915, 37.560 144.510 C 39.470 139.941, 39.376 137.169, 37.173 133.062 C 34.467 128.017, 29.924 126, 21.266 126 L 14 126 14 139 M 45 139 L 45 152 52.500 152 C 59.333 152, 60 151.822, 60 150 C 60 148.267, 59.333 148, 55 148 L 50 148 50 144.500 C 50 141.083, 50.095 141, 54 141 C 57.333 141, 58 140.667, 58 139 C 58 137.333, 57.333 137, 54 137 C 50.095 137, 50 136.917, 50 133.500 L 50 130 55 130 C 59.333 130, 60 129.733, 60 128 C 60 126.178, 59.333 126, 52.500 126 L 45 126 45 139 M 67 139 L 67 152 69.500 152 C 71.981 152, 72 151.933, 72 143 C 72 138.050, 72.338 134.014, 72.750 134.032 C 73.162 134.049, 75.965 138.099, 78.978 143.032 C 84.077 151.379, 84.683 152, 87.728 152 L 91 152 91 139 L 91 126 88.538 126 C 86.119 126, 86.070 126.165, 85.788 135.250 L 85.500 144.500 79.661 135.250 C 74.158 126.533, 73.625 126, 70.411 126 L 67 126 67 139 M 97 128 C 97 129.667, 97.667 130, 101 130 L 105 130 105 141 L 105 152 107.466 152 C 109.917 152, 109.934 151.934, 110.216 141.250 L 110.500 130.500 114.250 130.190 C 117.188 129.946, 118 129.459, 118 127.940 C 118 126.143, 117.224 126, 107.500 126 C 97.667 126, 97 126.127, 97 128 M 124 139 L 124 152 126.500 152 L 129 152 129 139 L 129 126 126.500 126 L 124 126 124 139 M 134 127.943 C 134 129.513, 134.814 129.944, 138.250 130.193 L 142.500 130.500 142.784 141.250 C 143.066 151.934, 143.083 152, 145.534 152 L 148 152 148 141 L 148 130 152 130 C 155.333 130, 156 129.667, 156 128 C 156 126.121, 155.333 126, 145 126 C 134.775 126, 134 126.137, 134 127.943 M 162 139 L 162 152 169.500 152 C 176.333 152, 177 151.822, 177 150 C 177 148.267, 176.333 148, 172 148 L 167 148 167 144.500 C 167 141.083, 167.095 141, 171 141 C 174.333 141, 175 140.667, 175 139 C 175 137.333, 174.333 137, 171 137 C 167.095 137, 167 136.917, 167 133.500 L 167 130 172 130 C 176.333 130, 177 129.733, 177 128 C 177 126.178, 176.333 126, 169.500 126 L 162 126 162 139 M 19.422 131.344 C 19.138 132.083, 19.040 136.020, 19.203 140.094 C 19.497 147.417, 19.532 147.504, 22.357 147.827 C 26.498 148.300, 30.868 146.156, 32.605 142.798 C 35.728 136.758, 30.665 130, 23.018 130 C 21.324 130, 19.705 130.605, 19.422 131.344" stroke="none" fill="#070752" fill-rule="evenodd"/></svg>